<svg id="Calque_2" data-name="Calque 2" xmlns="http://www.w3.org/2000/svg" viewBox="0 0 198.21 227.72"><defs><style>.cls-1{fill:#19365c;}.cls-2{fill:#27ade4;}.cls-3{fill:#193257;}</style></defs><title>OL</title><path class="cls-1" d="M333.55,374.68l1-15.83s-18.36-15.06-54.46-16.17v-1.53s36.74-.43,59,16.76h2.72l13.47-3.78c-.51,5.55,5.29,10,9.76,21.13,2.49,4.53,2.43,12.44,1,19.72a4,4,0,0,1-2.29,0s.29,4.13-.26,5.23a6.88,6.88,0,0,1-4,3.77c-.23,1,2.49,2,3,2s.6-1.07,1-1.09.64.41.7.7-.89,1-.89,1a14.4,14.4,0,0,0,2.74,0L368.3,404l-.64,3.19h1.53s1.57.16,2.49-13.59l-1.28-.13.07-9.45s-3.19-10.59-4.85-13.4a81.84,81.84,0,0,1-3.64-7.85c-.44-3.83-.67-6.32.06-8.68a3.74,3.74,0,0,1,2.75-2.68l16.85-3.83-80.55-41.75L225,330.64l32.17,19.91-.89,10.09S300.28,336.72,333.55,374.68Z" transform="translate(-184.19 -305.87)"/><path class="cls-2" d="M349.38,418.85c.22,1.15,1,0,1,0,0-10.64-10.53-58.64-66.87-62.3-54.64.94-67.47,51.66-67.47,61.19l1.51.05c1.58-29.58,34.3-58.43,65-56.47C318.57,364,344.11,383.53,349.38,418.85Z" transform="translate(-184.19 -305.87)"/><path class="cls-2" d="M281.9,361.28s-4.11,44,0,123.44h-4.11l4.11,4.47h2.33l1.41-4.28-1.28-.06c5.11-48.76.06-123.38.06-123.38Z" transform="translate(-184.19 -305.87)"/><path class="cls-2" d="M266,363.09c-7.38,8.7-32.14,23.68-32.74,68.19l3.58,3c2.81-48.86,32.84-72,32.84-72Z" transform="translate(-184.19 -305.87)"/><path class="cls-2" d="M301.32,364.06c7.38,8.69,32.14,23.67,32.74,68.18l-3.58,3c-2.8-48.85-32.84-72-32.84-72Z" transform="translate(-184.19 -305.87)"/><path class="cls-2" d="M222,402.51c4.68,13.66,94.42,27.45,123-.41l.91,2.4C317.3,438.13,229.6,424,220.79,404.09Z" transform="translate(-184.19 -305.87)"/><path class="cls-2" d="M325.17,376s-5.37,8.13-42,8.34c-36.09-.69-42-8.34-42-8.34l-1.52,1.26S247.21,388,282.77,388s44.13-10.62,44.13-10.62Z" transform="translate(-184.19 -305.87)"/><path class="cls-2" d="M253.47,454.85s7.79,2,29.74,2,20.62-.7,20.62-.7l4.28-5.3s-3.26,1.79-25.54,1.53c-21.12.38-32.36-3-32.36-3Z" transform="translate(-184.19 -305.87)"/><polygon class="cls-2" points="84.6 167.87 87.92 173.23 103.83 173.23 106.13 167.87 84.6 167.87"/><path class="cls-3" d="M282.22,511.36a12,12,0,0,0,8.1-4.93c1.57-2.43,1.77-2.94,2.8-8.37.18-3.19,1.89-4.36,3-5.93,7.79-6.82,86.29-63.66,86.29-63.66l-5.61-5.28-34.73,26.9s12.17-11.83,16.17-15.83c3.41-2.13,15.32-13.32,15.32-13.32L365,413.41l-8.68,11.82s-6.93,7-8.85,10c-4.38,3-15.57,12.23-18.55,14.14-2.89,2.78-18.64,14-23.15,18.94-5.53,3.91-9.19,9.27-19.75,23.23,5.45-15.1,24.22-34.7,42.83-48.06,23.77-18.75,33.26-31.34,33.26-31.34l-1.32-1.49-10.45,10.3-19.9,14.28s-18,13-20.33,15.93c-11.87,9.85-16,18.38-19.15,24a61.16,61.16,0,0,0-6.6,17.36c-5.24-1.79-16.93-18.77-16.93-18.77S255.68,459.19,245,445.4c-5.47-7.72-20-20.17-20-20.17s-19.47-13.18-21.83-12.32l.26,1.41s14.72,6.23,20.68,13.72c3.15,1.7,18.76,20.68,18.76,20.68l13.79,18.77,16.85,18.77s-15.26-12.13-21.06-19c0,0-19-22.13-22.47-26.68C227.26,436.3,216,425.23,216,425.23l-15.23-11.45-6.1,5.58s5.31,2.9,13.15,10.76c3.91,2.69,14.35,14.62,21.86,21.58l-37.87-30.76-7.66,7.1s61.59,44.75,86.77,63.45l2.85,3.62,1.36,10.29S275.17,508.85,282.22,511.36Z" transform="translate(-184.19 -305.87)"/><path class="cls-2" d="M212.27,524.67c0-5.51,2.7-8.76,6.55-8.76s6.55,3.25,6.55,8.76-2.7,8.92-6.55,8.92S212.27,530.26,212.27,524.67Zm10.84,0c0-4.29-1.71-6.84-4.29-6.84s-4.29,2.55-4.29,6.84,1.72,7,4.29,7S223.11,529,223.11,524.67Z" transform="translate(-184.19 -305.87)"/><path class="cls-2" d="M230.6,520.64h1.79l.21,3h.05a6.69,6.69,0,0,1,5.65-3.3,5.3,5.3,0,0,1,2.49.52l-.49,1.85a6.27,6.27,0,0,0-2.34-.42c-1.9,0-3.69,1-5.2,3.61v7.39H230.6Z" transform="translate(-184.19 -305.87)"/><path class="cls-2" d="M250.83,522.38H245v-1.74h8v12.64h-2.16Zm-.86-6a1.72,1.72,0,0,1,3.43,0,1.72,1.72,0,0,1-3.43,0Z" transform="translate(-184.19 -305.87)"/><path class="cls-2" d="M260.21,526.93a6.36,6.36,0,0,1,6.45-6.6c3.64,0,5.77,2.37,5.77,5.93a9.18,9.18,0,0,1-.1,1.3H261.64v-1.67h9.42l-.55.6c0-3-1.48-4.47-3.8-4.47s-4.37,1.77-4.37,4.91a4.59,4.59,0,0,0,5,4.94,6.85,6.85,0,0,0,3.84-1.19l.78,1.4a8.65,8.65,0,0,1-4.88,1.51C263.23,533.59,260.21,531.15,260.21,526.93Z" transform="translate(-184.19 -305.87)"/><path class="cls-2" d="M276.67,520.64h1.77l.18,2.13h.1a6.59,6.59,0,0,1,4.76-2.44c3,0,4.37,1.77,4.37,5.1v7.85h-2.16v-7.57c0-2.39-.83-3.51-2.88-3.51-1.51,0-2.53.76-4,2.26v8.82h-2.16Z" transform="translate(-184.19 -305.87)"/><path class="cls-2" d="M295.42,528.36v-6h-3.59v-1.61l3.66-.13.29-4h1.79v4h6.19v1.74h-6.19v6c0,2.26.76,3.43,3.2,3.43a8.29,8.29,0,0,0,3-.57l.47,1.59a11.21,11.21,0,0,1-4,.75C296.61,533.59,295.42,531.48,295.42,528.36Z" transform="translate(-184.19 -305.87)"/><path class="cls-2" d="M309.35,516.22h2.16v15.21h8.42v1.85H309.35Z" transform="translate(-184.19 -305.87)"/><path class="cls-2" d="M329.87,522.38H324v-1.74h8v12.64h-2.15Zm-.86-6a1.72,1.72,0,0,1,3.43,0,1.72,1.72,0,0,1-3.43,0Z" transform="translate(-184.19 -305.87)"/><path class="cls-2" d="M339.9,520.64h1.77l.18,2.13H342a6.56,6.56,0,0,1,4.75-2.44c3,0,4.37,1.77,4.37,5.1v7.85h-2.16v-7.57c0-2.39-.83-3.51-2.88-3.51-1.51,0-2.52.76-4,2.26v8.82H339.9Z" transform="translate(-184.19 -305.87)"/><path class="cls-2" d="M355.06,526.93a6.36,6.36,0,0,1,6.45-6.6c3.64,0,5.77,2.37,5.77,5.93a9.18,9.18,0,0,1-.1,1.3H356.49v-1.67h9.41l-.54.6c0-3-1.49-4.47-3.8-4.47s-4.37,1.77-4.37,4.91a4.58,4.58,0,0,0,4.94,4.94,6.86,6.86,0,0,0,3.85-1.19l.78,1.4a8.68,8.68,0,0,1-4.89,1.51C358.08,533.59,355.06,531.15,355.06,526.93Z" transform="translate(-184.19 -305.87)"/></svg>